<svg width="100" height="111" viewBox="0 0 93 111" fill="none" xmlns="http://www.w3.org/2000/svg">
<path d="M44 0L0 111L64 81L21 84L60 32L44 0Z" fill="#008EE0" stroke="#008EE0" stroke-width="1.2" stroke-linejoin="round" stroke-linecap="round"/>
<path d="M27 62L44 0L0 111L27 62Z" fill="#7BC7E9" stroke="#7BC7E9" stroke-width="1.2" stroke-linejoin="round" stroke-linecap="round"/>
<path d="M0 111L10 93L63.5 81L0 111Z" fill="#008EE0" stroke="#008EE0" stroke-width="1.2" stroke-linejoin="round" stroke-linecap="round"/>
<path d="M10 93L27 62L21 84L64 81L10 93Z" fill="#00B3E3" stroke="#00B3E3" stroke-width="1.2" stroke-linejoin="round" stroke-linecap="round"/>
<path d="M27 62L44 0L52.5 17L27 62Z" fill="#63B3E6" stroke="#63B3E6" stroke-width="1.2" stroke-linejoin="round" stroke-linecap="round"/>
<mask id="mask0" mask-type="alpha" maskUnits="userSpaceOnUse" x="44" y="36" width="49" height="74">
<path d="M93 110L44 60L62 36L93 110Z" fill="#028FD7"/>
</mask>
<g mask="url(#mask0)">
<path d="M93 110L44 60L62 36L93 110Z" fill="#7BCEEC" stroke="#7BCEEC" stroke-width="1.2" stroke-linejoin="round" stroke-linecap="round"/>
<path d="M93.5 110.5L52 48.5L43.5 60L93.5 110.5Z" fill="#00B4E7" stroke="#00B4E7" stroke-width="1.2" stroke-linejoin="round" stroke-linecap="round"/>
<path d="M63 65L62 36L93 110L63 65Z" fill="#5FB3E2" stroke="#5FB3E2" stroke-width="1.2" stroke-linejoin="round" stroke-linecap="round"/>
<path d="M64 81L63 65L93 110L64 81Z" fill="#028FD7" stroke="#028FD7" stroke-width="1.2" stroke-linejoin="round" stroke-linecap="round"/>
</g>
</svg>
